<svg height="480pt" viewBox="-104 0 480 480.00373" width="480pt" xmlns="http://www.w3.org/2000/svg"><path d="m264 480.003906c4.421875 0 8-3.582031 8-8v-400c.003906-3.03125-1.710938-5.804687-4.421875-7.160156l-128-64c-2.25-1.125-4.902344-1.125-7.152344 0l-128 64c-2.710937 1.355469-4.425781 4.128906-4.425781 7.160156v400c0 4.417969 3.582031 8 8 8zm-248-403.054687 120-60 120 60v387.054687h-240zm0 0"/><path d="m136 64.003906c-22.089844 0-40 17.910156-40 40s17.910156 40 40 40c22.09375 0 40-17.910156 40-40-.023438-22.082031-17.917969-39.972656-40-40zm0 64c-13.253906 0-24-10.746094-24-24s10.746094-24 24-24c13.257812 0 24 10.746094 24 24s-10.742188 24-24 24zm0 0"/></svg>